#tb 0: 1/25
0,          1,          1,        1,   518400, 0xd9444d71
0,          3,          3,        1,   518400, 0x5d8928cd
0,          5,          5,        1,   518400, 0xea5bc08b
0,          7,          7,        1,   518400, 0xb4465d31
0,          9,          9,        1,   518400, 0x983b5dbb
0,         11,         11,        1,   518400, 0x54936746
0,         13,         13,        1,   518400, 0x7ae38b02
0,         15,         15,        1,   518400, 0xc2a0dd83
0,         17,         17,        1,   518400, 0x61cac7a6
0,         19,         19,        1,   518400, 0xb0038443
0,         21,         21,        1,   518400, 0x16514296
0,         23,         23,        1,   518400, 0xa68dd470
0,         25,         25,        1,   518400, 0x2572f868
0,         27,         27,        1,   518400, 0x770a3239
0,         29,         29,        1,   518400, 0xdd04f6d2
0,         31,         31,        1,   518400, 0xa5e5d01e
0,         33,         33,        1,   518400, 0x5fe25c86
